<?xml version="1.0" encoding="UTF-8" standalone="no"?>
<!-- Created with Inkscape (http://www.inkscape.org/) -->

<svg
   width="210mm"
   height="297mm"
   viewBox="0 0 210 297"
   version="1.1"
   id="svg5"
   xmlns="http://www.w3.org/2000/svg"
   xmlns:svg="http://www.w3.org/2000/svg">
  <defs
     id="defs2" />
  <g
     id="layer2"
     style="display:inline">
    <path
       id="path25212"
       style="fill:#012f0f;fill-opacity:1;stroke:none;stroke-width:0.999999px;stroke-linecap:butt;stroke-linejoin:miter;stroke-opacity:1"
       d="m 299.26758,423.03711 c 0.042,0.0165 0.0816,0.0352 0.125,0.0508 0,0 0.02,-0.0114 0.0566,-0.0332 0.0366,-0.0218 0.0908,-0.054 0.1582,-0.0977 0.0674,-0.0436 0.14782,-0.0985 0.24024,-0.16406 0.0924,-0.0656 0.19693,-0.14296 0.30859,-0.23047 0.0558,-0.0438 0.11428,-0.0894 0.17383,-0.13867 0.0596,-0.0493 0.11908,-0.10149 0.18164,-0.15625 0.0625,-0.0548 0.12657,-0.11159 0.1914,-0.17188 0.0648,-0.0603 0.13088,-0.12365 0.19727,-0.18945 0.0664,-0.0658 0.13395,-0.1357 0.20117,-0.20703 0.0672,-0.0713 0.13384,-0.14383 0.20117,-0.2207 0.0673,-0.0769 0.13446,-0.15782 0.20118,-0.24024 0.0667,-0.0824 0.13383,-0.16789 0.19921,-0.25586 0.0654,-0.088 0.13004,-0.17796 0.19336,-0.27148 0.0633,-0.0935 0.12501,-0.18997 0.18555,-0.28906 0.0605,-0.0991 0.11875,-0.20003 0.17578,-0.30469 0.057,-0.10467 0.11321,-0.21202 0.16602,-0.32227 0.0528,-0.11024 0.10254,-0.22401 0.15039,-0.33984 0.0478,-0.11583 0.0945,-0.23405 0.13672,-0.35547 0.0422,-0.12143 0.0795,-0.24602 0.11523,-0.37305 0.0179,-0.0635 0.0366,-0.12844 0.0527,-0.19336 0.0161,-0.0649 0.0306,-0.12899 0.0449,-0.19531 0.0143,-0.0663 0.0286,-0.13345 0.041,-0.20117 0.0124,-0.0677 0.0228,-0.13595 0.0332,-0.20508 0.0104,-0.0691 0.021,-0.14041 0.0293,-0.21094 0.008,-0.0705 0.0154,-0.14095 0.0215,-0.21289 0.006,-0.0719 0.01,-0.1454 0.0137,-0.21875 0.004,-0.0733 0.006,-0.14595 0.008,-0.2207 0.001,-0.0747 0.003,-0.1504 0.002,-0.22656 -9.8e-4,-0.0762 -0.004,-0.1529 -0.008,-0.23047 -0.004,-0.0776 -0.008,-0.15735 -0.0137,-0.23633 -0.006,-0.079 -0.0145,-0.15789 -0.0234,-0.23828 -0.009,-0.0804 -0.0176,-0.16234 -0.0293,-0.24414 -0.0117,-0.0818 -0.0264,-0.16288 -0.041,-0.2461 -0.0146,-0.0832 -0.0292,-0.16732 -0.0469,-0.25195 -0.0176,-0.0846 -0.0379,-0.16981 -0.0586,-0.25586 -0.0207,-0.086 -0.0425,-0.17426 -0.0664,-0.26172 -0.0239,-0.0875 -0.049,-0.17479 -0.0762,-0.26367 -0.006,-0.0205 -0.0131,-0.0386 -0.0195,-0.0586 -2.25714,2.59816 -3.20492,5.5767 -3.42187,8.48242 z"
       transform="scale(0.26458333)" />
    <path
       id="path29606"
       style="fill:#00c240;fill-opacity:1;stroke:none;stroke-width:0.999999px;stroke-linecap:butt;stroke-linejoin:miter;stroke-opacity:1"
       d="m 319.94531,407.28711 c -8.9587,1.04233 -14.26024,3.81938 -17.25586,7.26758 0.006,0.02 0.0133,0.0381 0.0195,0.0586 0.0272,0.0889 0.0523,0.17621 0.0762,0.26367 0.0239,0.0875 0.0457,0.17568 0.0664,0.26172 0.0207,0.0861 0.041,0.17123 0.0586,0.25586 0.0176,0.0846 0.0322,0.16874 0.0469,0.25195 0.0146,0.0832 0.0293,0.16429 0.041,0.2461 0.0117,0.0818 0.0204,0.16375 0.0293,0.24414 0.009,0.0804 0.0173,0.1593 0.0234,0.23828 0.006,0.079 0.0101,0.15876 0.0137,0.23633 0.004,0.0776 0.007,0.15431 0.008,0.23047 9.8e-4,0.0762 -4.8e-4,0.15181 -0.002,0.22656 -10e-4,0.0747 -0.004,0.14736 -0.008,0.2207 -0.004,0.0734 -0.008,0.14682 -0.0137,0.21875 -0.006,0.0719 -0.0132,0.14236 -0.0215,0.21289 -0.008,0.0705 -0.0189,0.14182 -0.0293,0.21094 -0.0104,0.0691 -0.0208,0.13736 -0.0332,0.20508 -0.0124,0.0677 -0.0267,0.13485 -0.041,0.20117 -0.0143,0.0663 -0.0288,0.1304 -0.0449,0.19531 -0.0162,0.0649 -0.0349,0.12985 -0.0527,0.19336 -0.0358,0.12703 -0.0731,0.25162 -0.11523,0.37305 -0.0422,0.12142 -0.0889,0.23964 -0.13672,0.35547 -0.0479,0.11583 -0.0976,0.2296 -0.15039,0.33984 -0.0528,0.11025 -0.10899,0.2176 -0.16602,0.32227 -0.057,0.10466 -0.11524,0.20559 -0.17578,0.30469 -0.0605,0.0991 -0.12222,0.19553 -0.18555,0.28906 -0.0633,0.0935 -0.12797,0.18351 -0.19336,0.27148 -0.0654,0.088 -0.1325,0.17344 -0.19921,0.25586 -0.0667,0.0824 -0.13385,0.16336 -0.20118,0.24024 -0.0673,0.0769 -0.13395,0.14936 -0.20117,0.2207 -0.0672,0.0713 -0.13478,0.14123 -0.20117,0.20703 -0.0664,0.0658 -0.13243,0.12917 -0.19727,0.18945 -0.0648,0.0603 -0.12885,0.11711 -0.1914,0.17188 -0.0626,0.0548 -0.12209,0.10699 -0.18164,0.15625 -0.0596,0.0493 -0.118,0.0949 -0.17383,0.13867 -0.11166,0.0875 -0.21618,0.16492 -0.30859,0.23047 -0.0924,0.0655 -0.17284,0.12042 -0.24024,0.16406 -0.0674,0.0436 -0.12161,0.0759 -0.1582,0.0977 -0.0366,0.0218 -0.0566,0.0332 -0.0566,0.0332 -0.0434,-0.0156 -0.083,-0.0343 -0.125,-0.0508 -0.51441,6.88954 3.08008,13.36523 3.08008,13.36523 21.0063,-7.85249 17.59765,-29.11523 17.59765,-29.11523 z"
       transform="scale(0.26458333)" />
    <path
       style="fill:#01ff4f;fill-opacity:1;stroke:none;stroke-width:0.264583px;stroke-linecap:butt;stroke-linejoin:miter;stroke-opacity:1"
       d="m 105.51367,101.2832 c 0,0 -1.8743,-2.000314 -6.10657,-0.34543 -4.232272,1.65489 -2.841236,1.79957 -6.050068,3.92777 -3.208835,2.12819 -7.531674,-0.36648 -9.77483,4.11002 -2.243156,4.4765 -2.877407,5.93875 -4.00263,6.90583 -1.125222,0.96708 -1.84219,2.05361 -1.384588,5.08972 0.457605,3.03611 0.21899,3.29099 5.372076,4.58221 5.153088,1.29121 15.486232,5.07001 20.91927,4.77676 5.43304,-0.29326 14.53217,-20.94007 1.02734,-29.04688 z"
       id="path2355" />
    <path
       style="fill:#09842e;fill-opacity:1;stroke:none;stroke-width:0.264583px;stroke-linecap:butt;stroke-linejoin:miter;stroke-opacity:1"
       d="m 80.791941,125.05876 c 0,0 1.573456,6.98304 10.498539,8.48074 8.92508,1.4977 12.49097,3.11542 16.00943,0.559 3.51847,-2.55643 7.52433,-0.96742 11.31337,0.8058 0,0 -19.312528,-14.67649 -37.821339,-9.84554 z"
       id="path3405" />
    <path
       style="fill:#00c341;fill-opacity:1;stroke:none;stroke-width:0.264583px;stroke-linecap:butt;stroke-linejoin:miter;stroke-opacity:1"
       d="m 108.14538,126.39689 c 0,0 1.22893,2.40062 -3.65905,3.93319 -4.887981,1.53256 -30.307909,-3.28067 -26.215252,-9.66176 0,0 4.77403,-0.5373 8.554744,1.05411 3.780716,1.59142 12.468521,4.39204 21.319558,4.67446"
       id="path3233" />
    <path
       style="fill:#00a131;fill-opacity:1;stroke:none;stroke-width:0.264583px;stroke-linecap:butt;stroke-linejoin:miter;stroke-opacity:1"
       d="m 93.157687,110.46824 c 0,0 -5.185174,4.19028 -6.72951,4.65559 -1.544336,0.46531 -4.105902,2.22381 0.992415,1.72425 5.098317,-0.49956 10.314016,2.31911 12.178733,1.16589 1.864715,-1.15323 1.583795,-3.62149 1.583795,-3.62149 z"
       id="path23455" />
    <ellipse
       style="fill:#00c642;fill-opacity:1;stroke:none;stroke-width:0.264583"
       id="path16430"
       cx="97.210854"
       cy="111.96418"
       rx="5.0500479"
       ry="4.8116851" />
    <path
       id="path603"
       style="opacity:1;fill:#00e94f;fill-opacity:1;stroke:none;stroke-width:0.264583px;stroke-linecap:butt;stroke-linejoin:miter;stroke-opacity:1"
       d="m 113.45703,93.023438 c -0.48853,0.167187 -1.48212,0.791966 -3.49805,2.621093 -4.03186,3.658256 -4.44531,5.638669 -4.44531,5.638669 0,0 4.30152,1.65235 4.91602,13.83789 0.6145,12.18555 -5.94336,15.20899 -5.94336,15.20899 7.25899,0.80415 14.12695,4.57422 14.12695,4.57422 0,0 2.89344,-12.96868 2.0332,-25.62891 -0.86025,-12.660234 -6.71679,-16.128906 -6.71679,-16.128906 0,0 0.0159,-0.290234 -0.47266,-0.123046 z" />
    <circle
       style="fill:#012f0f;fill-opacity:1;stroke:none;stroke-width:0.339347;stroke-opacity:1"
       id="path18883"
       cx="97.936195"
       cy="110.74785"
       r="1.2238293" />
    <path
       style="fill:#00a131;fill-opacity:1;stroke:none;stroke-width:0.264583px;stroke-linecap:butt;stroke-linejoin:miter;stroke-opacity:1"
       d="m 78.099758,119.33989 c 2.204029,-0.48529 21.552045,1.83541 22.799402,2.08935 1.24735,0.25394 1.55615,0.84175 2.90602,1.50402 1.34987,0.66228 3.9404,2.66847 2.85266,1.03065 -1.08775,-1.63782 -3.67728,-2.87127 -6.15982,-3.86369 -2.482549,-0.99242 -20.233701,-3.16643 -20.888777,-3.06663 -0.65508,0.0998 -1.408457,1.21384 -1.408457,1.21384 z"
       id="path3063" />
  </g>
</svg>
