<svg xmlns="http://www.w3.org/2000/svg" viewBox="0 0 646 641" width="646" height="641"><defs><radialGradient id="15303215402525289409" cx="862.9496623805061" cy="396.7972106376369" r="10.136295382155268" gradientTransform="matrix(0.047772046,0,0,0.034346246,-41.169699784,-13.278899005)"><stop stop-color="#bdfb75" /><stop offset="1" stop-color="#70c50b" /></radialGradient><linearGradient id="5090719471468007711" x1="901.607617706742" x2="976.0842435047446" y1="397.0156171649038" y2="408.5911631100479" gradientTransform="matrix(0.007668085,0,0,0.008800674,-6.576061641,-3.153731013)"><stop stop-color="#8eeb24" /><stop offset="1" stop-color="#abff4b" /></linearGradient><linearGradient id="5355387851879566418" x1="964.8144666977742" x2="921.1331612444002" y1="497.52630101311723" y2="476.55927439549777" gradientTransform="matrix(0.006995609,0,0,0.023296338,-6.070151374,-10.45500378)"><stop stop-color="#3d6e03" /><stop offset="1" stop-color="#66a31d" /></linearGradient><linearGradient id="4450464364326890289" x1="913.4452514846064" x2="921.8320621316542" y1="471.3175177410929" y2="451.7482928979814" gradientTransform="matrix(0.008687426,0,0,0.026364232,-7.442752963,-11.4703088)"><stop stop-color="#69bc09" /><stop offset="1" stop-color="#8cd736" /></linearGradient><linearGradient id="1569408401363619084" x1="904.0954045563913" x2="923.9738111396649" y1="419.81179844838334" y2="410.5977730793123" gradientTransform="matrix(0.015750945,0,0,0.033810941,-13.885570483,-13.417848014)"><stop stop-color="#61a90b" /><stop offset="1" stop-color="#66a31d" /></linearGradient><radialGradient id="208698630740790325" cx="931.61667455321" cy="398.28237502305166" r="13.393574386158805" gradientTransform="matrix(0.026196117,0,0,0.027493842,-23.862092012,-10.566360662)"><stop stop-color="#bdfb75" /><stop offset="1" stop-color="#8cd736" /></radialGradient><linearGradient id="2087228312041633047" x1="982.9858897663777" x2="1017.2320332418228" y1="411.9109423245042" y2="393.3900688122737" gradientTransform="matrix(0.016212275,0,0,0.006309705,-15.52303498,-2.08674585)"><stop stop-color="#6dbd11" /><stop offset="1" stop-color="#9be743" /></linearGradient><linearGradient id="2036999286270493826" x1="915.7835663671573" x2="916.3807717151526" y1="436.0216578939714" y2="430.13491946373153" gradientTransform="matrix(0.009181118,0,0,0.034989092,-7.875174774,-14.753173889)"><stop stop-color="#7cc825" /><stop offset="1" stop-color="#5da706" /></linearGradient></defs><g transform="matrix(1,0,0,1,-632.332334193,-163.117044678)">
<g>
	<g>
		<path d="M507.326532,81.858924L 1412.673468,81.858924 L 1412.673468,916.880593 L 507.326532,916.880593 L 507.326532,81.858924 Z" transform="matrix(1,0,0,1,0,0)" fill="#ffffff" fill-opacity="0"/>
	</g>
	<g>
		<g transform="matrix(3.981919698,0,0,3.981919698,-2779.086154402,-1153.783559188)">
			<g>
				<path d="M861.845134,402.368638C861.887126,402.385148 861.926738,402.403825 861.970134,402.41945 C861.970134,402.41945 861.990123,402.408036 862.026744,402.386247 C862.063334,402.364427 862.117533,402.332231 862.184947,402.288529 C862.25233,402.24495 862.332743,402.190049 862.425181,402.124467 C862.517588,402.058885 862.622111,401.981523 862.733775,401.893998 C862.789561,401.850205 862.848033,401.804612 862.907603,401.755326 C862.967204,401.70604 863.026683,401.653855 863.089244,401.599076 C863.151744,401.544297 863.2158,401.487504 863.28065,401.427201 C863.345439,401.366899 863.411509,401.303544 863.477915,401.237748 C863.544291,401.171952 863.611857,401.102067 863.679087,401.030717 C863.746287,400.959428 863.812907,400.886888 863.880259,400.810014 C863.94755,400.73314 864.01472,400.652207 864.081431,400.569779 C864.148112,400.487382 864.215251,400.401902 864.28065,400.31392 C864.346049,400.225938 864.410685,400.135972 864.474009,400.042436 C864.537303,399.94896 864.599009,399.852464 864.659556,399.753404 C864.720042,399.654283 864.7783,399.553361 864.835337,399.448686 C864.892314,399.344041 864.948527,399.23668 865.001353,399.12642 C865.054148,399.016191 865.103892,398.902421 865.151744,398.786576 C865.199534,398.670762 865.246226,398.552537 865.288462,398.431108 C865.330668,398.309678 865.367961,398.185106 865.403697,398.058061 C865.42158,397.994554 865.440287,397.929643 865.4564,397.864702 C865.472483,397.799821 865.486979,397.735704 865.501292,397.669389 C865.515574,397.603105 865.529887,397.535936 865.542277,397.468217 C865.554698,397.400529 865.565074,397.332292 865.57548,397.263139 C865.585887,397.194047 865.596476,397.122728 865.604777,397.052202 C865.612773,396.981706 865.620188,396.911271 865.626292,396.839311 C865.632273,396.767412 865.636271,396.693925 865.639994,396.620561 C865.643992,396.547258 865.645976,396.474626 865.64799,396.399858 C865.648997,396.325181 865.650981,396.249467 865.649973,396.173295 C865.648997,396.097124 865.645976,396.020402 865.641978,395.942827 C865.63798,395.865251 865.633982,395.785478 865.628275,395.706499 C865.622294,395.627519 865.61378,395.548631 865.604899,395.468217 C865.595896,395.387834 865.58729,395.305894 865.575572,395.224077 C865.563883,395.14229 865.549174,395.061204 865.534587,394.977983 C865.519999,394.894792 865.505381,394.810655 865.487681,394.72603 C865.470072,394.641435 865.449778,394.55623 865.429087,394.47017 C865.408396,394.384172 865.386576,394.295915 865.362681,394.208452 C865.338786,394.120958 865.3137,394.033678 865.286479,393.94478 C865.280497,393.924303 865.273387,393.906175 865.266978,393.886186 C863.009837,396.484361 862.062053,399.462876 861.845103,402.368608 C861.845103,402.368608 861.845134,402.368638 861.845134,402.368638 Z" fill="#224000"/>
			</g>
		</g>
		<g transform="matrix(3.981919698,0,0,3.981919698,-2779.086154402,-1153.783559188)">
			<g>
				<path d="M882.522867,386.618639C873.564158,387.660967 868.262614,390.438005 865.267008,393.886217 C865.27302,393.906206 865.280314,393.924333 865.286509,393.94481 C865.3137,394.033708 865.338816,394.121019 865.362712,394.208482 C865.386607,394.295976 865.408396,394.384172 865.429118,394.470201 C865.449809,394.556322 865.470103,394.641435 865.487712,394.72606 C865.50532,394.810655 865.519908,394.894823 865.534617,394.978013 C865.549204,395.061204 865.563914,395.14232 865.575602,395.224107 C865.58729,395.305925 865.596018,395.387865 865.604899,395.468248 C865.613902,395.548662 865.622202,395.62755 865.628306,395.706529 C865.634318,395.785539 865.638407,395.865312 865.642008,395.942857 C865.646006,396.020463 865.648997,396.097185 865.650004,396.173326 C865.650981,396.249528 865.649516,396.325151 865.64802,396.399888 C865.647013,396.474595 865.643992,396.547258 865.639994,396.620591 C865.635996,396.693986 865.631999,396.767412 865.626292,396.839341 C865.62031,396.911241 865.613108,396.981706 865.604807,397.052232 C865.596812,397.122728 865.585917,397.194047 865.575511,397.26317 C865.565104,397.332292 865.554698,397.400529 865.542307,397.468248 C865.529917,397.535966 865.515605,397.603105 865.501292,397.66942 C865.48701,397.735734 865.472514,397.799821 865.4564,397.864732 C865.440196,397.929643 865.421519,397.994584 865.403697,398.058091 C865.3679,398.185136 865.330607,398.309709 865.288462,398.431138 C865.246287,398.552568 865.199565,398.670793 865.151744,398.786607 C865.103861,398.902452 865.054148,399.016221 865.001353,399.126451 C864.948557,399.236711 864.892375,399.344072 864.835337,399.448716 C864.77833,399.553392 864.720103,399.654313 864.659556,399.753404 C864.59907,399.852525 864.537333,399.94896 864.474009,400.042466 C864.410716,400.135972 864.346049,400.225999 864.28065,400.313951 C864.215251,400.401963 864.148142,400.487413 864.081431,400.56981 C864.01475,400.652207 863.947581,400.733171 863.880259,400.810044 C863.812968,400.886949 863.746318,400.959428 863.679087,401.030747 C863.611888,401.102067 863.544322,401.171983 863.477915,401.237779 C863.41154,401.303575 863.3455,401.36696 863.28065,401.427232 C863.215861,401.487535 863.151805,401.544358 863.089244,401.599107 C863.026652,401.653916 862.967173,401.706101 862.907603,401.755357 C862.848002,401.804673 862.789622,401.850266 862.733775,401.894029 C862.622111,401.981553 862.517619,402.058946 862.425181,402.124497 C862.332804,402.190019 862.25236,402.24492 862.184947,402.28856 C862.117564,402.33217 862.063334,402.364457 862.026744,402.386277 C861.990153,402.408067 861.970164,402.41948 861.970164,402.41948 C861.926768,402.403855 861.887156,402.385179 861.845164,402.368669 C861.33076,409.258195 864.925242,415.733902 864.925242,415.733902 C885.931527,407.881394 882.522897,386.618669 882.522897,386.618669 C882.522897,386.618669 882.522867,386.618639 882.522867,386.618639 Z" fill="url('#15303215402525289409')"/>
			</g>
		</g>
		<g transform="matrix(3.981919698,0,0,3.981919698,-2779.086154402,-1153.783559188)">
			<path d="M961.36939,362.134198C961.36939,362.134198 954.285429,354.573932 938.289422,360.828613 C922.293444,367.083322 927.550907,367.630159 915.423039,375.673737 C903.295142,383.717286 886.956858,374.288623 878.478787,391.207683 C870.000716,408.126714 867.603563,413.653327 863.350758,417.308458 C859.097953,420.963561 856.388137,425.070112 858.117662,436.545172 C859.847186,448.020233 858.945327,448.98357 878.421577,453.863777 C897.897799,458.743927 936.952204,473.026038 957.486516,471.917659 C978.020857,470.809279 1012.411263,392.774086 961.36939,362.134198 C961.36939,362.134198 961.36939,362.134198 961.36939,362.134198 Z" fill="url('#5090719471468007711')"/>
		</g>
		<g transform="matrix(3.981919698,0,0,3.981919698,-2779.086154402,-1153.783559188)">
			<path d="M867.708721,452.471358C867.708721,452.471358 873.655641,478.86392 907.388252,484.524561 C941.120834,490.185143 954.598203,496.299366 967.896331,486.63728 C981.194488,476.975194 996.334743,482.980881 1010.655523,489.682829 C1010.655523,489.682829 937.663284,434.212658 867.708721,452.471358 C867.708721,452.471358 867.708721,452.471358 867.708721,452.471358 Z" fill="url('#5355387851879566418')"/>
		</g>
		<g transform="matrix(3.981919698,0,0,3.981919698,-2779.086154402,-1153.783559188)">
			<path d="M971.315996,457.052061C971.315996,457.052061 975.96079,466.125297 957.486516,471.917659 C939.012271,477.71002 842.93695,459.518276 858.405267,435.400778 C858.405267,435.400778 876.448825,433.370037 890.738145,439.384806 C905.027464,445.399633 937.863262,455.984657 971.315996,457.052061 " fill="url('#4450464364326890289')"/>
		</g>
		<g transform="matrix(3.981919698,0,0,3.981919698,-2779.086154402,-1153.783559188)">
			<path d="M914.669596,396.849292C914.669596,396.849292 895.072092,412.686588 889.235238,414.445237 C883.398384,416.203886 873.716863,422.850181 892.986103,420.96209 C912.255315,419.07397 931.968218,429.727219 939.015962,425.368588 C946.063705,421.009928 945.001953,411.681065 945.001953,411.681065 C945.001953,411.681065 914.669596,396.849292 914.669596,396.849292 Z" fill="url('#1569408401363619084')"/>
		</g>
		<g transform="matrix(3.981919698,0,0,3.981919698,-2779.086154402,-1153.783559188)">
			<path d="M949.075459,402.503243C949.075459,412.547024 940.529999,420.689133 929.98866,420.689133 C919.447322,420.689133 910.901862,412.547024 910.901862,402.503243 C910.901862,392.459461 919.447322,384.317353 929.98866,384.317353 C940.529999,384.317353 949.075459,392.459461 949.075459,402.503243 C949.075459,402.503243 949.075459,402.503243 949.075459,402.503243 Z" fill="url('#208698630740790325')"/>
		</g>
		<g transform="matrix(3.981919698,0,0,3.981919698,-2779.086154402,-1153.783559188)">
			<path d="M991.391535,330.916187C989.545111,331.548088 985.789805,333.909457 978.170542,340.822683 C962.932015,354.649164 961.36939,362.134198 961.36939,362.134198 C961.36939,362.134198 977.627108,368.379276 979.949606,414.434885 C982.272133,460.490494 957.486516,471.917659 957.486516,471.917659 C984.922087,474.956979 1010.879723,489.206044 1010.879723,489.206044 C1010.879723,489.206044 1021.81556,440.190586 1018.564241,392.34089 C1015.312922,344.491194 993.177952,331.381246 993.177952,331.381246 C993.177952,331.381246 993.238045,330.284286 991.391535,330.916187 C991.391535,330.916187 991.391535,330.916187 991.391535,330.916187 Z" fill="url('#2087228312041633047')"/>
		</g>
		<g transform="matrix(3.981919698,0,0,3.981919698,-2779.086154402,-1153.783559188)">
			<path d="M937.355613,397.906085C937.355613,399.132834 936.868293,400.309351 936.000835,401.17681 C935.133376,402.044268 933.956859,402.531588 932.73011,402.531588 C931.503361,402.531588 930.326843,402.044268 929.459385,401.17681 C928.591926,400.309351 928.104606,399.132834 928.104606,397.906085 C928.104606,396.679336 928.591926,395.502818 929.459385,394.63536 C930.326843,393.767901 931.503361,393.280581 932.73011,393.280581 C933.956859,393.280581 935.133376,393.767901 936.000835,394.63536 C936.868293,395.502818 937.355613,396.679336 937.355613,397.906085 C937.355613,397.906085 937.355613,397.906085 937.355613,397.906085 Z" fill="#224000"/>
		</g>
		<g transform="matrix(3.981919698,0,0,3.981919698,-2779.086154402,-1153.783559188)">
			<path d="M857.757737,430.379939C866.08794,428.54577 939.214292,437.316926 943.928724,438.276687 C948.643099,439.236477 949.810216,441.458108 954.912111,443.961174 C960.013977,446.464298 969.804958,454.046738 965.693793,447.856563 C961.582629,441.666358 951.795425,437.004522 942.412582,433.253628 C933.029739,429.502763 865.938773,421.286028 863.462899,421.663225 C860.986996,422.040423 858.139577,426.250954 858.139577,426.250954 C858.139577,426.250954 857.757737,430.379939 857.757737,430.379939 Z" fill="url('#2036999286270493826')"/>
		</g>
	</g>
</g></g></svg>